<?xml version="1.0" encoding="UTF-8"?>
<svg width="291px" height="290px" viewBox="0 0 291 290" version="1.1" xmlns="http://www.w3.org/2000/svg" xmlns:xlink="http://www.w3.org/1999/xlink">
    <!-- Generator: Sketch 43.2 (39069) - http://www.bohemiancoding.com/sketch -->
    <title>Beauty Code Logo</title>
    <desc>Logo of anti-age clinic Beauty Code</desc>
    <defs>
        <path d="M145.226056,0 C225.431698,0 290.451069,64.9034713 290.450569,144.966144 C290.451069,225.029361 225.431698,289.93333 145.226056,289.932832 C65.0199151,289.93333 0.000512322543,225.029361 0,144.966144 C0.000512322543,64.9034713 65.0199151,0 145.226056,0 Z M145.225557,23.1944688 C77.8525745,23.1944688 23.236396,77.713256 23.235883,144.966144 C23.236396,212.218534 77.8525745,266.737865 145.225557,266.737865 C212.59804,266.737865 267.215226,212.218534 267.214682,144.966144 C267.215226,77.713256 212.59804,23.1944688 145.225557,23.1944688 Z" id="path-1"></path>
        <path d="M81.5600777,144.549611 L81.5600777,148.026672 L81.5600777,168.32399 L11.8519157,168.32399 L11.8519157,144.549611 L81.5600777,144.549611 Z M80.9750003,132.952354 C77.9722958,116.784654 63.7712172,104.538963 46.7062691,104.538963 C29.6366902,104.538963 15.4386988,116.783657 12.4369932,132.952354 L80.9750003,132.952354 Z M0.233994659,139.331187 C0.233994659,121.865034 9.90100682,106.653669 24.1881196,98.7400852 C9.90255045,90.8275889 0.233994659,75.6182638 0.233994659,58.1495268 L0.233994659,0.163377394 L11.8569098,0.163377394 L11.8569098,17.543741 L81.5488184,17.543741 L81.5488184,0.163377394 L93.1779988,0.163377394 L93.1779988,58.1495268 C93.1779988,75.6157259 83.5109866,90.827045 69.2238739,98.7406291 C83.5094884,106.653125 93.1779988,121.86245 93.1779988,139.331187 L93.1779988,197.317337 L81.5488184,197.317337 L81.5488184,179.974181 L11.8569098,179.974181 L11.8569098,197.317337 L0.233994659,197.317337 L0.233994659,139.331187 Z M11.8519157,51.7712371 L11.8519157,29.1561802 L81.5600777,29.1561802 L81.5600777,51.7712371 L11.8519157,51.7712371 Z M11.8519157,63.3684489 L11.8519157,63.9484046 L12.3335252,63.9484046 C15.0990116,80.4060599 29.4353386,92.9417513 46.7062691,92.9417513 C63.9802415,92.9417513 78.3134813,80.403522 81.0785136,63.9484046 L81.5600777,63.9484046 L81.5600777,63.3684489 L11.8519157,63.3684489 Z" id="path-3"></path>
    </defs>
    <g id="Page-1" stroke="none" stroke-width="1" fill="none" fill-rule="evenodd">
        <g id="Group-3">
            <mask id="mask-2" fill="white">
                <use xlink:href="#path-1"></use>
            </mask>
            <g id="Clip-2"></g>
            <polygon id="Fill-1" fill="#3B519B" mask="url(#mask-2)" points="-2.27002967 292.198815 292.720599 292.198815 292.720599 -2.26598327 -2.27002967 -2.26598327"></polygon>
        </g>
        <g id="Group-6" transform="translate(98.519288, 46.226059)">
            <mask id="mask-4" fill="white">
                <use xlink:href="#path-3"></use>
            </mask>
            <g id="Clip-5"></g>
            <polygon id="Fill-4" fill="#3B519B" mask="url(#mask-4)" points="-2.03603501 199.58332 95.4480739 199.58332 95.4480739 -2.10260588 -2.03603501 -2.10260588"></polygon>
        </g>
    </g>
</svg>
